<?xml version="1.0" standalone="no"?>
<!DOCTYPE svg PUBLIC "-//W3C//DTD SVG 20010904//EN"
 "http://www.w3.org/TR/2001/REC-SVG-20010904/DTD/svg10.dtd">
<svg version="1.0" xmlns="http://www.w3.org/2000/svg"
 width="512.000000pt" height="512.000000pt" viewBox="0 0 512.000000 512.000000"
 preserveAspectRatio="xMidYMid meet">

<g transform="translate(0.000000,512.000000) scale(0.100000,-0.100000)"
fill="#000000" stroke="none">
<path d="M2338 5110 c-138 -13 -171 -49 -187 -205 -13 -124 -37 -197 -96 -285
-105 -158 -264 -242 -452 -241 -158 1 -278 45 -398 146 -88 75 -143 93 -198
63 -56 -29 -189 -149 -327 -294 -176 -185 -186 -235 -68 -363 100 -107 148
-233 148 -383 0 -306 -212 -524 -547 -560 -117 -13 -152 -29 -176 -81 -48
-101 -48 -610 0 -683 24 -37 107 -74 165 -74 150 0 313 -80 416 -203 95 -114
138 -245 129 -392 -9 -145 -48 -236 -153 -360 -97 -114 -95 -157 11 -284 78
-93 239 -254 320 -321 94 -77 157 -74 250 10 105 95 229 148 365 157 166 10
302 -39 420 -153 110 -106 164 -227 176 -397 8 -106 20 -137 66 -165 85 -53
602 -56 690 -5 49 29 66 67 77 178 13 124 37 197 96 285 105 158 264 242 452
241 158 -1 278 -45 398 -146 88 -75 143 -93 198 -63 84 44 416 369 455 445 35
68 18 127 -60 212 -101 109 -148 232 -148 388 0 158 57 290 171 398 110 103
219 149 382 161 151 11 180 40 196 203 21 202 7 507 -25 555 -26 41 -81 67
-163 76 -184 21 -271 60 -382 170 -125 123 -176 256 -166 425 9 143 49 237
153 360 97 114 95 157 -11 284 -78 93 -239 254 -320 321 -93 76 -159 74 -245
-6 -60 -56 -146 -108 -229 -136 -88 -31 -268 -33 -350 -4 -173 60 -312 206
-365 384 -8 30 -18 95 -22 145 -8 106 -20 137 -68 166 -58 36 -357 52 -578 31z
m427 -1091 c563 -72 1050 -494 1211 -1049 75 -257 75 -563 0 -820 -161 -555
-633 -965 -1210 -1050 -101 -15 -311 -15 -412 0 -645 95 -1146 589 -1250 1230
-20 122 -20 338 0 460 112 691 689 1209 1386 1243 75 3 179 -2 275 -14z"/>
<path d="M1894 3444 c-59 -21 -119 -76 -148 -137 -13 -28 -48 -109 -76 -178
l-51 -126 -77 20 c-74 20 -78 20 -114 3 -43 -21 -58 -55 -58 -135 0 -85 52
-151 119 -151 19 0 19 -2 -5 -72 -47 -138 -54 -214 -54 -576 0 -322 1 -336 21
-369 33 -53 63 -63 191 -63 93 0 118 3 144 19 47 29 64 75 64 175 l0 86 710 0
710 0 0 -92 c0 -75 4 -99 20 -125 31 -52 64 -63 191 -63 94 0 117 3 144 20 63
39 65 54 65 397 0 170 -5 345 -10 391 -9 72 -42 203 -65 255 -6 13 -2 17 16
17 35 0 86 35 105 71 12 23 15 50 12 100 -6 115 -57 146 -181 110 l-68 -20 -8
22 c-42 110 -119 289 -138 319 -25 40 -89 88 -142 106 -24 9 -209 12 -655 11
-517 0 -628 -3 -662 -15z m1239 -98 c18 -7 43 -25 57 -39 29 -28 223 -494 223
-534 0 -13 -8 -32 -17 -41 -15 -16 -86 -17 -837 -17 l-821 0 -19 24 c-13 16
-18 33 -15 47 10 39 193 481 211 507 9 14 35 35 58 46 41 20 56 21 585 21 435
0 549 -3 575 -14z m-1021 -913 c15 -13 18 -32 18 -115 0 -55 -5 -108 -10 -119
-10 -18 -23 -19 -220 -19 -197 0 -210 1 -220 19 -5 11 -10 64 -10 117 0 141
-11 134 228 134 168 0 198 -2 214 -17z m1309 7 c17 -10 19 -22 19 -123 0 -75
-4 -117 -12 -125 -9 -9 -70 -12 -214 -12 -175 0 -203 2 -215 17 -10 11 -14 47
-14 120 0 92 2 106 19 119 16 11 61 14 209 14 111 0 196 -4 208 -10z"/>
</g>
</svg>
