<?xml version="1.0" standalone="no"?>
<!DOCTYPE svg PUBLIC "-//W3C//DTD SVG 20010904//EN"
 "http://www.w3.org/TR/2001/REC-SVG-20010904/DTD/svg10.dtd">
<svg version="1.0" xmlns="http://www.w3.org/2000/svg"
 width="512.000000pt" height="512.000000pt" viewBox="0 0 512.000000 512.000000"
 preserveAspectRatio="xMidYMid meet">

<g transform="translate(0.000000,512.000000) scale(0.100000,-0.100000)"
fill="#000000" stroke="none">
<path d="M285 4356 c-36 -16 -81 -59 -103 -101 -16 -27 -17 -132 -20 -1192
l-2 -1163 2400 0 2400 0 -2 1163 c-3 1281 2 1184 -65 1251 -59 60 104 56
-2335 56 -1837 -1 -2248 -3 -2273 -14z m4202 -272 c105 -50 126 -206 38 -283
-50 -44 -104 -56 -168 -37 -28 8 -56 12 -62 8 -7 -4 -69 -52 -138 -107 l-126
-100 6 -37 c8 -57 -5 -105 -40 -145 -56 -63 -127 -79 -202 -44 -52 24 -74 50
-96 113 l-18 53 -103 34 -104 34 -42 -31 c-54 -39 -105 -48 -162 -28 l-44 15
-142 -120 -142 -120 9 -34 c19 -67 -25 -156 -94 -191 -38 -20 -117 -20 -155 0
-42 22 -80 70 -88 112 -22 119 50 214 162 214 29 0 64 -5 78 -11 23 -11 34 -3
163 106 l138 118 -3 61 c-3 76 24 130 83 163 47 27 122 30 164 9 44 -23 88
-80 96 -125 l7 -40 110 -37 110 -36 26 25 c50 47 121 60 186 33 l34 -14 137
110 136 110 -6 39 c-23 136 124 243 252 183z m-2920 -90 c157 -33 293 -106
416 -223 122 -117 193 -233 244 -398 24 -79 26 -104 26 -238 0 -134 -2 -159
-26 -238 -128 -417 -507 -676 -935 -636 -385 35 -705 330 -778 716 -33 177 -4
385 76 546 184 367 573 555 977 471z m3043 -473 c15 -30 14 -1323 -2 -1339 -8
-8 -67 -12 -199 -12 -183 0 -188 1 -203 22 -14 20 -16 99 -16 663 0 564 2 643
16 663 15 21 20 22 204 22 177 0 190 -1 200 -19z m-1086 -303 c14 -20 16 -86
16 -520 0 -438 -2 -498 -16 -512 -13 -13 -46 -16 -204 -16 -177 0 -190 1 -200
19 -6 13 -10 193 -10 517 0 449 2 499 17 516 14 16 35 18 199 18 178 0 183 -1
198 -22z m534 -254 l22 -15 0 -370 c0 -236 -4 -377 -10 -390 -10 -18 -23 -19
-205 -19 -182 0 -195 1 -205 19 -6 13 -10 152 -10 385 0 353 1 367 20 386 18
18 33 20 193 20 140 0 177 -3 195 -16z m-1071 -214 c18 -35 18 -515 0 -550
l-13 -25 -188 -3 c-130 -2 -193 1 -202 9 -19 16 -21 568 -2 587 9 9 63 12 202
10 l190 -3 13 -25z"/>
<path d="M4361 3982 c-28 -22 -31 -75 -6 -102 24 -26 79 -26 105 0 62 62 -31
158 -99 102z"/>
<path d="M3271 3724 c-27 -34 -27 -64 -1 -92 47 -50 140 -6 125 58 -14 60 -88
80 -124 34z"/>
<path d="M3819 3551 c-16 -13 -23 -29 -23 -55 0 -47 23 -70 70 -70 68 0 97 72
49 119 -29 30 -64 32 -96 6z"/>
<path d="M2730 3270 c-42 -42 -12 -120 48 -120 46 0 72 25 72 70 0 29 -6 43
-22 54 -31 22 -74 20 -98 -4z"/>
<path d="M1190 3889 c-399 -104 -652 -496 -576 -892 60 -313 297 -557 604
-622 86 -19 238 -19 324 0 284 60 508 274 590 562 31 110 31 286 0 396 -80
281 -287 485 -566 557 -106 27 -271 27 -376 -1z m414 -275 c31 -30 30 -31
-149 -245 l-146 -174 141 -5 c125 -4 143 -7 156 -24 8 -11 14 -26 14 -33 0 -7
-71 -98 -157 -201 -246 -294 -245 -292 -269 -292 -27 0 -54 25 -54 49 0 9 70
100 155 202 l156 184 -139 5 c-149 5 -176 14 -170 56 2 13 92 129 201 258 207
246 222 259 261 220z"/>
<path d="M4300 2855 l0 -585 110 0 110 0 0 585 0 585 -110 0 -110 0 0 -585z"/>
<path d="M3210 2705 l0 -435 115 0 115 0 -2 433 -3 432 -112 3 -113 3 0 -436z"/>
<path d="M3757 2874 c-4 -4 -7 -142 -7 -306 l0 -298 115 0 115 0 -2 303 -3
302 -106 3 c-58 1 -108 -1 -112 -4z"/>
<path d="M2670 2475 l0 -205 110 0 110 0 0 205 0 205 -110 0 -110 0 0 -205z"/>
<path d="M161 1682 c4 -100 7 -113 34 -157 21 -35 45 -56 80 -74 l49 -26 2236
0 2236 0 49 26 c35 18 59 39 80 74 27 44 30 57 34 157 l3 108 -2402 0 -2402 0
3 -108z m2617 -34 c17 -17 15 -48 -5 -70 -15 -16 -35 -18 -211 -18 -168 0
-198 2 -214 17 -21 18 -24 53 -6 71 17 17 419 17 436 0z"/>
<path d="M1936 1258 c-4 -35 -9 -87 -13 -115 l-5 -53 642 0 642 0 -6 48 c-3
26 -8 77 -11 115 l-7 67 -618 0 -618 0 -6 -62z"/>
<path d="M1510 977 c-48 -24 -70 -72 -70 -153 l0 -74 1120 0 1120 0 0 74 c0
81 -22 129 -70 153 -36 18 -2064 18 -2100 0z"/>
</g>
</svg>
