<?xml version="1.0" standalone="no"?>
<!DOCTYPE svg PUBLIC "-//W3C//DTD SVG 20010904//EN"
 "http://www.w3.org/TR/2001/REC-SVG-20010904/DTD/svg10.dtd">
<svg version="1.0" xmlns="http://www.w3.org/2000/svg"
 width="512.000000pt" height="512.000000pt" viewBox="0 0 512.000000 512.000000"
 preserveAspectRatio="xMidYMid meet">

<g transform="translate(0.000000,512.000000) scale(0.100000,-0.100000)"
fill="#000000" stroke="none">
<path d="M697 5104 c-43 -8 -87 -19 -99 -25 -30 -16 -50 -72 -37 -106 5 -15
104 -123 220 -239 177 -178 209 -215 209 -240 0 -54 -39 -296 -50 -309 -14
-17 -236 -55 -317 -55 -21 0 -72 45 -242 214 -143 141 -226 216 -244 220 -42
10 -89 -21 -104 -67 -7 -21 -18 -78 -25 -128 -43 -326 133 -669 430 -836 195
-109 460 -133 676 -61 l67 22 474 -474 c261 -261 475 -479 475 -485 0 -6 -117
-127 -259 -269 l-260 -260 -43 15 c-24 8 -74 14 -113 14 -99 -1 -162 -32 -267
-133 -77 -74 -86 -80 -133 -84 -117 -11 -139 -28 -537 -426 -392 -392 -407
-410 -423 -523 -8 -55 9 -147 37 -204 29 -58 342 -366 398 -393 100 -47 210
-47 308 0 34 16 145 120 413 388 396 394 412 415 426 531 6 50 11 60 84 138
86 91 113 138 130 224 10 48 9 68 -6 128 l-17 72 264 263 263 264 550 -550
549 -549 -21 -68 c-63 -203 -55 -410 24 -598 82 -194 250 -361 451 -449 80
-35 226 -66 313 -66 73 0 230 25 261 41 30 16 50 72 37 106 -5 15 -104 123
-220 239 -177 178 -209 215 -209 240 0 54 39 296 50 309 14 17 236 55 317 55
21 0 72 -45 242 -214 143 -141 226 -216 244 -220 42 -10 89 21 104 67 7 21 18
78 25 128 43 326 -133 669 -430 836 -195 109 -460 133 -676 61 l-67 -22 -549
549 -550 550 610 610 610 610 68 1 c115 2 159 28 343 211 167 165 188 196 173
260 -4 18 -66 88 -173 194 -181 182 -204 195 -273 165 -18 -7 -104 -85 -190
-173 -178 -180 -197 -210 -205 -331 l-5 -77 -602 -602 c-330 -332 -605 -603
-611 -603 -6 0 -224 214 -485 475 l-474 474 22 67 c71 212 50 471 -55 663
-177 328 -534 501 -896 435z"/>
</g>
</svg>
