<?xml version="1.0" standalone="no"?>
<!DOCTYPE svg PUBLIC "-//W3C//DTD SVG 20010904//EN"
 "http://www.w3.org/TR/2001/REC-SVG-20010904/DTD/svg10.dtd">
<svg version="1.0" xmlns="http://www.w3.org/2000/svg"
 width="512.000000pt" height="512.000000pt" viewBox="0 0 512.000000 512.000000"
 preserveAspectRatio="xMidYMid meet">

<g transform="translate(0.000000,512.000000) scale(0.100000,-0.100000)"
fill="#000000" stroke="none">
<path d="M2330 5110 c-494 -48 -950 -230 -1350 -538 -195 -150 -448 -432 -594
-662 -63 -99 -186 -351 -230 -471 -49 -134 -102 -340 -128 -499 -31 -195 -31
-565 0 -760 45 -276 116 -498 237 -745 132 -269 269 -460 489 -681 221 -220
412 -357 681 -489 247 -121 469 -192 745 -237 195 -31 565 -31 760 0 276 45
498 116 745 237 269 132 460 269 681 489 220 221 357 412 489 681 88 179 132
296 180 476 63 240 78 371 78 649 0 278 -15 409 -78 649 -48 180 -92 297 -180
476 -132 269 -269 460 -489 681 -221 220 -412 357 -681 489 -246 121 -474 193
-740 235 -147 23 -475 34 -615 20z m510 -680 c226 -35 401 -93 598 -196 502
-263 861 -739 974 -1293 12 -60 20 -113 17 -116 -4 -3 -312 102 -685 233 -682
240 -781 272 -929 294 -105 15 -407 15 -515 -1 -152 -21 -238 -48 -925 -291
-374 -131 -681 -237 -684 -234 -7 7 19 143 46 239 204 722 795 1246 1538 1365
157 26 404 25 565 0z m-182 -1395 c228 -54 382 -245 382 -475 0 -133 -45 -244
-138 -339 -193 -197 -498 -196 -693 2 -184 187 -183 491 5 678 75 76 155 116
281 143 42 8 102 5 163 -9z m-771 -1039 c40 -21 90 -75 107 -117 10 -23 35
-234 71 -581 30 -299 55 -552 55 -561 0 -21 -12 -19 -160 29 -187 61 -420 188
-580 315 -201 159 -394 397 -508 625 -50 99 -94 206 -87 212 2 3 226 28 497
56 503 53 543 55 605 22z m1986 -25 c252 -27 460 -51 462 -53 7 -6 -38 -114
-87 -212 -114 -228 -307 -466 -508 -625 -160 -127 -393 -254 -580 -315 -149
-48 -160 -50 -160 -29 0 10 25 262 55 561 36 348 61 557 71 581 20 48 70 99
119 122 58 27 115 24 628 -30z"/>
</g>
</svg>
